Coordinates
version=1
nRows=17
nColumns=24
inDegrees=yes

Units are S.I. units (second, meters, Newtons, ...)
Angles are in degrees.

endheader
time	pelvis_tilt	pelvis_list	pelvis_rotation	pelvis_tx	pelvis_ty	pelvis_tz	hip_flexion_r	hip_adduction_r	hip_rotation_r	knee_angle_r	ankle_angle_r	subtalar_angle_r	mtp_angle_r	hip_flexion_l	hip_adduction_l	hip_rotation_l	knee_angle_l	ankle_angle_l	subtalar_angle_l	mtp_angle_l	lumbar_extension	lumbar_bending	lumbar_rotation
      1.42483333	      3.03007408	     10.51500975	     -4.52603644	      0.30682601	      1.00918238	      0.31341639	     15.05567003	    -13.51846376	      1.33529245	    -74.77035741	     -8.27118611	     -9.55335534	      7.01696669	      4.89650361	     16.11929100	      3.87408996	    -10.99274235	      1.65753591	    -19.21534225	     -1.94684876	    -15.36187687	     -6.48079697	     -2.75234398
      1.42900000	      3.04529011	     10.31751916	     -4.44491505	      0.31166161	      1.01013911	      0.31300094	     15.58396802	    -13.24740511	      1.23171884	    -74.51546139	     -7.71288688	     -9.80371419	      6.74210129	      4.27963137	     15.95181309	      4.11933281	    -10.48889141	      1.65221354	    -19.22718825	     -1.94097940	    -15.39120472	     -6.17637559	     -3.00043694
      1.43316667	      3.06387271	     10.15602700	     -4.35535013	      0.31649625	      1.01102436	      0.31257764	     16.10057595	    -13.02338083	      1.11650193	    -74.21983521	     -7.09403961	    -10.05332590	      6.19962678	      3.65703553	     15.82077751	      4.37907173	     -9.96954391	      1.57321460	    -19.28803824	     -1.93531132	    -15.42772718	     -5.91346501	     -3.31197394
      1.43733333	      3.02923342	      9.93682308	     -4.26923527	      0.32132984	      1.01184757	      0.31219680	     16.64684000	    -12.71000527	      1.01435465	    -73.84286317	     -6.49108014	    -10.26852888	      6.13323396	      3.12153777	     15.61120502	      4.52411033	     -9.52313572	      1.64198825	    -19.16939174	     -1.93233157	    -15.39130706	     -5.63390487	     -3.33756946
      1.44150000	      3.09666534	      9.75069435	     -4.17279954	      0.32616376	      1.01274955	      0.31176449	     17.06185870	    -12.46500783	      0.87271622	    -73.40593957	     -5.89442639	    -10.48350118	      5.79795219	      2.44213123	     15.45011123	      4.78130182	     -9.00304752	      1.62776561	    -19.15740693	     -1.93024342	    -15.49417671	     -5.31451649	     -3.69576070
      1.44566667	      3.08845267	      9.52187326	     -4.07798843	      0.33098255	      1.01353753	      0.31137581	     17.53871457	    -12.14473504	      0.75470926	    -72.90062053	     -5.30652222	    -10.65015842	      5.63146410	      1.86956658	     15.22973542	      4.98357767	     -8.54028952	      1.69182749	    -19.07831466	     -1.92789072	    -15.51694541	     -4.99259011	     -3.82147952
      1.44983333	      3.11795949	      9.32370253	     -3.97155538	      0.33585030	      1.01431184	      0.31096231	     17.95214759	    -11.87928931	      0.60387725	    -72.34073487	     -4.67395471	    -10.83136578	      5.39468800	      1.24596936	     15.04131882	      5.17660146	     -8.05262171	      1.71093712	    -19.01821302	     -1.92651539	    -15.54205132	     -4.69340667	     -4.07089781
      1.45400000	      3.07071787	      9.13908820	     -3.86758923	      0.34067776	      1.01491791	      0.31058036	     18.45147296	    -11.60973972	      0.48149521	    -71.74782101	     -4.01719907	    -11.02130546	      5.31856570	      0.74086882	     14.85607063	      5.30715670	     -7.62480409	      1.73292225	    -18.89762596	     -1.92531340	    -15.50920849	     -4.43609196	     -4.13829384
      1.45816667	      3.13635525	      8.93446274	     -3.77145539	      0.34553334	      1.01565941	      0.31019961	     18.79303992	    -11.33520517	      0.33909619	    -71.06954677	     -3.41397987	    -11.12784240	      5.12067004	      0.07746487	     14.65611437	      5.51610225	     -7.13010852	      1.78740915	    -18.82031891	     -1.92349319	    -15.59615073	     -4.12953710	     -4.41552190
      1.46233333	      3.09014675	      8.75620737	     -3.66099508	      0.35035687	      1.01615564	      0.30981374	     19.25977191	    -11.07826334	      0.20754279	    -70.37195622	     -2.74874608	    -11.29181729	      5.03925832	     -0.41945172	     14.47238556	      5.63941822	     -6.71455386	      1.80761644	    -18.69893520	     -1.92222925	    -15.56325560	     -3.86537598	     -4.49590892
      1.46650000	      3.15670119	      8.58659375	     -3.57797830	      0.35523667	      1.01676726	      0.30946059	     19.58143957	    -10.84142098	      0.08093596	    -69.61078088	     -2.04419521	    -11.29753514	      1.17542340	     -1.09267035	     14.30608078	      5.87995120	     -6.18445109	      1.73974769	    -18.75508162	     -1.94597229	    -15.63709612	     -3.61829917	     -4.71830503
      1.47066667	      3.12985403	      8.39970653	     -3.46093614	      0.36006991	      1.01721307	      0.30910122	     19.98285796	    -10.57652221	     -0.05794267	    -68.79130506	     -1.40833232	    -11.40310271	      1.17311386	     -1.59453678	     14.10691298	      5.98732635	     -5.80571941	      1.84818880	    -18.58805147	     -1.94195802	    -15.61951390	     -3.35861801	     -4.84041153
      1.47483333	      3.14467298	      8.22626590	     -3.36601143	      0.36492509	      1.01764747	      0.30876249	     20.32896054	    -10.33042279	     -0.18219172	    -67.92169858	     -0.79726116	    -11.46077208	      1.15920123	     -2.15736949	     13.92257945	      6.10671148	     -5.38390122	      1.93828605	    -18.42717841	     -1.93764798	    -15.64147778	     -3.09665096	     -5.03628138
      1.47900000	      3.13584367	      8.07009750	     -3.26906592	      0.36977888	      1.01798126	      0.30843447	     20.69106113	    -10.10032842	     -0.29745546	    -67.01394367	     -0.17350131	    -11.52515562	      1.14617955	     -2.68099051	     13.75387475	      6.22262799	     -4.98486023	      1.99744408	    -18.28870898	     -1.93397957	    -15.63820787	     -2.86961853	     -5.16433792
      1.48316667	      3.18041175	      7.92270555	     -3.18555244	      0.37463747	      1.01833225	      0.30811524	     20.98138077	     -9.88827499	     -0.40920894	    -66.05546089	      0.41368902	    -11.54439791	      1.11382999	     -3.27669322	     13.59592668	      6.36622804	     -4.55025411	      2.06913365	    -18.16839423	     -1.92920649	    -15.69901654	     -2.63178113	     -5.36347841
      1.48733333	      3.15918900	      7.77850424	     -3.08728163	      0.37948571	      1.01854365	      0.30780960	     21.32573083	     -9.66931459	     -0.51415762	    -65.04891872	      1.00188246	    -11.58075940	      1.09384629	     -3.76900252	     13.43509934	      6.47801824	     -4.18028925	      2.11935134	    -18.05976433	     -1.92603899	    -15.68043551	     -2.43036664	     -5.46229277
      1.49150000	      3.19913236	      7.64206085	     -3.01114775	      0.38436554	      1.01877788	      0.30751801	     21.58952623	     -9.46767179	     -0.61292713	    -63.99494229	      1.54187681	    -11.57782504	      1.05504148	     -4.34919646	     13.28503190	      6.61977996	     -3.76101117	      2.19059885	    -17.96200328	     -1.92141584	    -15.73222561	     -2.21220909	     -5.63249049
